# Alias OBJ Model File
# Exported from SketchUp, (c) 2000-2012 Trimble Navigation Limited
# File units = millimeters

mtllib logo.mtl

g Mesh1 Group2 Group1 Model

usemtl _2
v 3000 2800 1320
vt 31.4961 31.4961
vn 0 0 1
v 3200 2800 1320
vt 39.3701 31.4961
v 3100 2900 1320
vt 35.4331 35.4331
f 1/1/1 2/2/1 3/3/1

v 3100 2700 1320
vt 35.4331 27.5591
f 2/2/1 1/1/1 4/4/1

v 3000 2600 1320
vt 31.4961 23.622
f 4/4/1 1/1/1 5/5/1

v 2900 2700 1320
vt 27.5591 27.5591
f 6/6/1 5/5/1 1/1/1

v 2800 2600 1320
vt 23.622 23.622
f 7/7/1 5/5/1 6/6/1

v 2900 2500 1320
vt 27.5591 19.685
f 5/5/1 7/7/1 8/8/1

v 2800 2400 1320
vt 23.622 15.748
f 8/8/1 7/7/1 9/9/1

v 2700 2500 1320
vt 19.685 19.685
f 10/10/1 9/9/1 7/7/1

v 2600 2400 1320
vt 15.748 15.748
f 11/11/1 9/9/1 10/10/1

v 2700 2300 1320
vt 19.685 11.811
f 9/9/1 11/11/1 12/12/1

v 2600 2200 1320
vt 15.748 7.87402
f 12/12/1 11/11/1 13/13/1

v 2500 2300 1320
vt 11.811 11.811
f 14/14/1 13/13/1 11/11/1

v 2400 2200 1320
vt 7.87402 7.87402
f 15/15/1 13/13/1 14/14/1

v 2500 2100 1320
vt 11.811 3.93701
f 13/13/1 15/15/1 16/16/1

v 2400 2000 1320
vt 7.87402 0
f 16/16/1 15/15/1 17/17/1

v 2300 2100 1320
vt 3.93701 3.93701
f 18/18/1 17/17/1 15/15/1

v 2200 2200 1320
vt 0 7.87402
f 15/15/1 19/19/1 18/18/1

v 2300 2300 1320
vt 3.93701 11.811
f 19/19/1 15/15/1 20/20/1

v 2400 2400 1320
vt 7.87402 15.748
f 20/20/1 15/15/1 21/21/1

f 14/14/1 21/21/1 15/15/1

f 11/11/1 21/21/1 14/14/1

v 2500 2500 1320
vt 11.811 19.685
f 21/21/1 11/11/1 22/22/1

v 2600 2600 1320
vt 15.748 23.622
f 22/22/1 11/11/1 23/23/1

f 10/10/1 23/23/1 11/11/1

f 7/7/1 23/23/1 10/10/1

v 2700 2700 1320
vt 19.685 27.5591
f 23/23/1 7/7/1 24/24/1

v 2800 2800 1320
vt 23.622 31.4961
f 24/24/1 7/7/1 25/25/1

f 6/6/1 25/25/1 7/7/1

f 1/1/1 25/25/1 6/6/1

v 2900 2900 1320
vt 27.5591 35.4331
f 25/25/1 1/1/1 26/26/1

v 3000 3000 1320
vt 31.4961 39.3701
f 26/26/1 1/1/1 27/27/1

f 3/3/1 27/27/1 1/1/1

v 2600 2800 1320
vt 15.748 31.4961
f 24/24/1 28/28/1 23/23/1

v 2500 2700 1320
vt 11.811 27.5591
f 29/29/1 23/23/1 28/28/1

v 2400 2600 1320
vt 7.87402 23.622
f 30/30/1 23/23/1 29/29/1

f 23/23/1 30/30/1 22/22/1

f 22/22/1 30/30/1 21/21/1

v 2300 2500 1320
vt 3.93701 19.685
f 31/31/1 21/21/1 30/30/1

v 2200 2400 1320
vt 0 15.748
f 32/32/1 21/21/1 31/31/1

f 21/21/1 32/32/1 20/20/1

f 20/20/1 32/32/1 19/19/1

v 2200 2600 1320
vt 0 23.622
f 31/31/1 33/33/1 32/32/1

f 30/30/1 33/33/1 31/31/1

v 2300 2700 1320
vt 3.93701 27.5591
f 33/33/1 30/30/1 34/34/1

v 2400 2800 1320
vt 7.87402 31.4961
f 34/34/1 30/30/1 35/35/1

f 29/29/1 35/35/1 30/30/1

f 28/28/1 35/35/1 29/29/1

v 2500 2900 1320
vt 11.811 35.4331
f 35/35/1 28/28/1 36/36/1

v 2400 3000 1320
vt 7.87402 39.3701
f 36/36/1 37/37/1 35/35/1

v 2300 2900 1320
vt 3.93701 35.4331
f 38/38/1 35/35/1 37/37/1

v 2200 2800 1320
vt 0 31.4961
f 39/39/1 35/35/1 38/38/1

f 35/35/1 39/39/1 34/34/1

f 34/34/1 39/39/1 33/33/1

v 2600 2000 1320
vt 15.748 0
f 17/17/1 40/40/1 16/16/1

f 16/16/1 40/40/1 13/13/1

v 2700 2100 1320
vt 19.685 3.93701
f 41/41/1 13/13/1 40/40/1

v 2800 2200 1320
vt 23.622 7.87402
f 42/42/1 13/13/1 41/41/1

f 13/13/1 42/42/1 12/12/1

f 12/12/1 42/42/1 9/9/1

v 2900 2300 1320
vt 27.5591 11.811
f 43/43/1 9/9/1 42/42/1

v 3000 2400 1320
vt 31.4961 15.748
f 44/44/1 9/9/1 43/43/1

f 9/9/1 44/44/1 8/8/1

f 8/8/1 44/44/1 5/5/1

v 3100 2500 1320
vt 35.4331 19.685
f 45/45/1 5/5/1 44/44/1

v 3200 2600 1320
vt 39.3701 23.622
f 46/46/1 5/5/1 45/45/1

f 5/5/1 46/46/1 4/4/1

f 4/4/1 46/46/1 2/2/1

v 3200 2400 1320
vt 39.3701 15.748
f 45/45/1 47/47/1 46/46/1

f 44/44/1 47/47/1 45/45/1

v 3100 2300 1320
vt 35.4331 11.811
f 47/47/1 44/44/1 48/48/1

v 3000 2200 1320
vt 31.4961 7.87402
f 48/48/1 44/44/1 49/49/1

f 43/43/1 49/49/1 44/44/1

f 42/42/1 49/49/1 43/43/1

v 2900 2100 1320
vt 27.5591 3.93701
f 49/49/1 42/42/1 50/50/1

v 2800 2000 1320
vt 23.622 0
f 50/50/1 42/42/1 51/51/1

f 41/41/1 51/51/1 42/42/1

f 40/40/1 51/51/1 41/41/1

v 3000 2000 1320
vt 31.4961 0
f 51/51/1 52/52/1 50/50/1

f 50/50/1 52/52/1 49/49/1

v 3100 2100 1320
vt 35.4331 3.93701
f 53/53/1 49/49/1 52/52/1

v 3200 2200 1320
vt 39.3701 7.87402
f 54/54/1 49/49/1 53/53/1

f 49/49/1 54/54/1 48/48/1

f 48/48/1 54/54/1 47/47/1

g Mesh2 Group3 Group1 Model

v 3300 2900 1320
v 3400 2800 1320
v 3400 3000 1320
f 55/38/1 56/35/1 57/37/1

f 2/39/1 56/35/1 55/38/1

v 3300 2700 1320
f 56/35/1 2/39/1 58/34/1

f 58/34/1 2/39/1 46/33/1

v 3400 2600 1320
f 46/33/1 59/30/1 58/34/1

v 3300 2500 1320
f 59/30/1 46/33/1 60/31/1

f 60/31/1 46/33/1 47/32/1

v 3400 2400 1320
f 47/32/1 61/21/1 60/31/1

v 3300 2300 1320
f 61/21/1 47/32/1 62/20/1

f 62/20/1 47/32/1 54/19/1

v 3400 2200 1320
f 54/19/1 63/15/1 62/20/1

v 3300 2100 1320
f 63/15/1 54/19/1 64/18/1

v 3400 2000 1320
f 64/18/1 65/17/1 63/15/1

v 3500 2100 1320
f 66/16/1 63/15/1 65/17/1

v 3600 2200 1320
f 67/13/1 63/15/1 66/16/1

v 3500 2300 1320
f 63/15/1 67/13/1 68/14/1

v 3600 2400 1320
f 68/14/1 67/13/1 69/11/1

v 3700 2300 1320
f 70/12/1 69/11/1 67/13/1

v 3800 2400 1320
f 71/9/1 69/11/1 70/12/1

v 3700 2500 1320
f 69/11/1 71/9/1 72/10/1

v 3800 2600 1320
f 72/10/1 71/9/1 73/7/1

v 3900 2500 1320
f 74/8/1 73/7/1 71/9/1

v 4000 2600 1320
f 75/5/1 73/7/1 74/8/1

v 3900 2700 1320
f 73/7/1 75/5/1 76/6/1

v 4000 2800 1320
f 76/6/1 75/5/1 77/1/1

v 4100 2700 1320
f 78/4/1 77/1/1 75/5/1

v 4200 2800 1320
f 79/2/1 77/1/1 78/4/1

v 4100 2900 1320
f 77/1/1 79/2/1 80/3/1

v 4000 3000 1320
f 80/3/1 81/27/1 77/1/1

v 3900 2900 1320
f 82/26/1 77/1/1 81/27/1

v 3800 2800 1320
f 83/25/1 77/1/1 82/26/1

f 77/1/1 83/25/1 76/6/1

f 76/6/1 83/25/1 73/7/1

v 3700 2700 1320
f 84/24/1 73/7/1 83/25/1

v 3600 2600 1320
f 85/23/1 73/7/1 84/24/1

f 73/7/1 85/23/1 72/10/1

f 72/10/1 85/23/1 69/11/1

v 3500 2500 1320
f 86/22/1 69/11/1 85/23/1

f 61/21/1 69/11/1 86/22/1

f 69/11/1 61/21/1 68/14/1

f 68/14/1 61/21/1 63/15/1

f 62/20/1 63/15/1 61/21/1

f 86/22/1 59/30/1 61/21/1

f 85/23/1 59/30/1 86/22/1

v 3500 2700 1320
f 59/30/1 85/23/1 87/29/1

v 3600 2800 1320
f 87/29/1 85/23/1 88/28/1

f 84/24/1 88/28/1 85/23/1

f 83/25/1 88/28/1 84/24/1

v 3700 2900 1320
vt 19.685 35.4331
f 88/28/1 83/25/1 89/55/1

v 3800 3000 1320
vt 23.622 39.3701
f 89/55/1 83/25/1 90/56/1

f 82/26/1 90/56/1 83/25/1

f 81/27/1 90/56/1 82/26/1

v 3600 3000 1320
vt 15.748 39.3701
f 90/56/1 91/57/1 89/55/1

f 89/55/1 91/57/1 88/28/1

v 3500 2900 1320
f 92/36/1 88/28/1 91/57/1

f 56/35/1 88/28/1 92/36/1

f 88/28/1 56/35/1 87/29/1

f 87/29/1 56/35/1 59/30/1

f 58/34/1 59/30/1 56/35/1

f 92/36/1 57/37/1 56/35/1

f 91/57/1 57/37/1 92/36/1

f 60/31/1 61/21/1 59/30/1

v 4200 2600 1320
f 78/4/1 93/46/1 79/2/1

f 75/5/1 93/46/1 78/4/1

v 4100 2500 1320
f 93/46/1 75/5/1 94/45/1

v 4000 2400 1320
f 94/45/1 75/5/1 95/44/1

f 74/8/1 95/44/1 75/5/1

f 71/9/1 95/44/1 74/8/1

v 3900 2300 1320
f 95/44/1 71/9/1 96/43/1

v 3800 2200 1320
f 96/43/1 71/9/1 97/42/1

f 70/12/1 97/42/1 71/9/1

f 67/13/1 97/42/1 70/12/1

v 3700 2100 1320
f 97/42/1 67/13/1 98/41/1

v 3600 2000 1320
f 98/41/1 67/13/1 99/40/1

f 66/16/1 99/40/1 67/13/1

f 65/17/1 99/40/1 66/16/1

v 3800 2000 1320
f 99/40/1 100/51/1 98/41/1

f 98/41/1 100/51/1 97/42/1

v 3900 2100 1320
f 101/50/1 97/42/1 100/51/1

v 4000 2200 1320
f 102/49/1 97/42/1 101/50/1

f 97/42/1 102/49/1 96/43/1

f 96/43/1 102/49/1 95/44/1

v 4100 2300 1320
f 103/48/1 95/44/1 102/49/1

v 4200 2400 1320
f 104/47/1 95/44/1 103/48/1

f 95/44/1 104/47/1 94/45/1

f 94/45/1 104/47/1 93/46/1

v 4200 2200 1320
f 103/48/1 105/54/1 104/47/1

f 102/49/1 105/54/1 103/48/1

v 4100 2100 1320
f 105/54/1 102/49/1 106/53/1

v 4000 2000 1320
f 106/53/1 102/49/1 107/52/1

f 101/50/1 107/52/1 102/49/1

f 100/51/1 107/52/1 101/50/1

g Mesh3 Group4 Group1 Model

v 4500 2900 1320
v 4400 3000 1320
v 4400 2800 1320
f 108/36/1 109/37/1 110/35/1

v 4600 3000 1320
f 111/57/1 109/37/1 108/36/1

v 4600 2800 1320
f 108/36/1 112/28/1 111/57/1

f 110/35/1 112/28/1 108/36/1

v 4500 2700 1320
f 112/28/1 110/35/1 113/29/1

v 4400 2600 1320
f 113/29/1 110/35/1 114/30/1

v 4300 2700 1320
f 115/34/1 114/30/1 110/35/1

f 93/33/1 114/30/1 115/34/1

v 4300 2500 1320
f 114/30/1 93/33/1 116/31/1

f 116/31/1 93/33/1 104/32/1

v 4400 2400 1320
f 104/32/1 117/21/1 116/31/1

v 4300 2300 1320
f 117/21/1 104/32/1 118/20/1

f 118/20/1 104/32/1 105/19/1

v 4400 2200 1320
f 105/19/1 119/15/1 118/20/1

v 4300 2100 1320
f 119/15/1 105/19/1 120/18/1

v 4400 2000 1320
f 120/18/1 121/17/1 119/15/1

v 4500 2100 1320
f 122/16/1 119/15/1 121/17/1

v 4600 2200 1320
f 123/13/1 119/15/1 122/16/1

v 4500 2300 1320
f 119/15/1 123/13/1 124/14/1

v 4600 2400 1320
f 124/14/1 123/13/1 125/11/1

v 4700 2300 1320
f 126/12/1 125/11/1 123/13/1

v 4800 2400 1320
f 127/9/1 125/11/1 126/12/1

v 4700 2500 1320
f 125/11/1 127/9/1 128/10/1

v 4800 2600 1320
f 128/10/1 127/9/1 129/7/1

v 4900 2500 1320
f 130/8/1 129/7/1 127/9/1

v 5000 2600 1320
f 131/5/1 129/7/1 130/8/1

v 4900 2700 1320
f 129/7/1 131/5/1 132/6/1

v 5000 2800 1320
f 132/6/1 131/5/1 133/1/1

v 5100 2700 1320
f 134/4/1 133/1/1 131/5/1

v 5200 2600 1320
f 131/5/1 135/46/1 134/4/1

v 5100 2500 1320
f 135/46/1 131/5/1 136/45/1

v 5000 2400 1320
f 136/45/1 131/5/1 137/44/1

f 130/8/1 137/44/1 131/5/1

f 127/9/1 137/44/1 130/8/1

v 4900 2300 1320
f 137/44/1 127/9/1 138/43/1

v 4800 2200 1320
f 138/43/1 127/9/1 139/42/1

f 126/12/1 139/42/1 127/9/1

f 123/13/1 139/42/1 126/12/1

v 4700 2100 1320
f 139/42/1 123/13/1 140/41/1

v 4600 2000 1320
f 140/41/1 123/13/1 141/40/1

f 122/16/1 141/40/1 123/13/1

f 121/17/1 141/40/1 122/16/1

v 4800 2000 1320
f 141/40/1 142/51/1 140/41/1

f 140/41/1 142/51/1 139/42/1

v 4900 2100 1320
f 143/50/1 139/42/1 142/51/1

v 5000 2200 1320
f 144/49/1 139/42/1 143/50/1

f 139/42/1 144/49/1 138/43/1

f 138/43/1 144/49/1 137/44/1

v 5100 2300 1320
f 145/48/1 137/44/1 144/49/1

v 5200 2400 1320
f 146/47/1 137/44/1 145/48/1

f 137/44/1 146/47/1 136/45/1

f 136/45/1 146/47/1 135/46/1

v 4800 2800 1320
f 133/1/1 147/25/1 132/6/1

v 4900 2900 1320
f 147/25/1 133/1/1 148/26/1

v 4800 3000 1320
f 148/26/1 149/56/1 147/25/1

v 4700 2900 1320
f 150/55/1 147/25/1 149/56/1

f 112/28/1 147/25/1 150/55/1

v 4700 2700 1320
f 147/25/1 112/28/1 151/24/1

v 4600 2600 1320
f 151/24/1 112/28/1 152/23/1

f 113/29/1 152/23/1 112/28/1

f 114/30/1 152/23/1 113/29/1

v 4500 2500 1320
f 152/23/1 114/30/1 153/22/1

f 153/22/1 114/30/1 117/21/1

f 116/31/1 117/21/1 114/30/1

f 117/21/1 125/11/1 153/22/1

f 125/11/1 117/21/1 124/14/1

f 124/14/1 117/21/1 119/15/1

f 118/20/1 119/15/1 117/21/1

f 153/22/1 125/11/1 152/23/1

f 128/10/1 152/23/1 125/11/1

f 129/7/1 152/23/1 128/10/1

f 152/23/1 129/7/1 151/24/1

f 151/24/1 129/7/1 147/25/1

f 132/6/1 147/25/1 129/7/1

f 150/55/1 111/57/1 112/28/1

f 149/56/1 111/57/1 150/55/1

f 115/34/1 79/39/1 93/33/1

f 110/35/1 79/39/1 115/34/1

v 4300 2900 1320
f 79/39/1 110/35/1 154/38/1

f 154/38/1 110/35/1 109/37/1

g Mesh4 Group5 Group1 Model

v 5400 2800 1320
v 5600 2800 1320
v 5500 2900 1320
f 155/35/1 156/28/1 157/36/1

v 5500 2700 1320
f 156/28/1 155/35/1 158/29/1

v 5400 2600 1320
f 158/29/1 155/35/1 159/30/1

v 5300 2700 1320
f 160/34/1 159/30/1 155/35/1

v 5200 2600 1320
f 161/33/1 159/30/1 160/34/1

v 5300 2500 1320
f 159/30/1 161/33/1 162/31/1

v 5200 2400 1320
f 162/31/1 161/33/1 163/32/1

v 5400 2400 1320
f 163/32/1 164/21/1 162/31/1

v 5300 2300 1320
f 164/21/1 163/32/1 165/20/1

v 5200 2200 1320
f 165/20/1 163/32/1 166/19/1

v 5400 2200 1320
f 166/19/1 167/15/1 165/20/1

v 5300 2100 1320
f 167/15/1 166/19/1 168/18/1

v 5400 2000 1320
f 168/18/1 169/17/1 167/15/1

v 5500 2100 1320
f 170/16/1 167/15/1 169/17/1

v 5600 2200 1320
f 171/13/1 167/15/1 170/16/1

v 5500 2300 1320
f 167/15/1 171/13/1 172/14/1

v 5600 2400 1320
f 172/14/1 171/13/1 173/11/1

v 5700 2300 1320
f 174/12/1 173/11/1 171/13/1

v 5800 2400 1320
f 175/9/1 173/11/1 174/12/1

v 5700 2500 1320
f 173/11/1 175/9/1 176/10/1

v 5800 2600 1320
f 176/10/1 175/9/1 177/7/1

v 5900 2500 1320
f 178/8/1 177/7/1 175/9/1

v 6000 2600 1320
f 179/5/1 177/7/1 178/8/1

v 5900 2700 1320
f 177/7/1 179/5/1 180/6/1

v 6000 2800 1320
f 180/6/1 179/5/1 181/1/1

v 6100 2700 1320
f 182/4/1 181/1/1 179/5/1

v 6200 2800 1320
f 183/2/1 181/1/1 182/4/1

v 6100 2900 1320
f 181/1/1 183/2/1 184/3/1

v 6000 3000 1320
f 184/3/1 185/27/1 181/1/1

v 5900 2900 1320
f 186/26/1 181/1/1 185/27/1

v 5800 2800 1320
f 187/25/1 181/1/1 186/26/1

f 181/1/1 187/25/1 180/6/1

f 180/6/1 187/25/1 177/7/1

v 5700 2700 1320
f 188/24/1 177/7/1 187/25/1

v 5600 2600 1320
f 189/23/1 177/7/1 188/24/1

f 177/7/1 189/23/1 176/10/1

f 176/10/1 189/23/1 173/11/1

v 5500 2500 1320
f 190/22/1 173/11/1 189/23/1

f 164/21/1 173/11/1 190/22/1

f 173/11/1 164/21/1 172/14/1

f 172/14/1 164/21/1 167/15/1

f 165/20/1 167/15/1 164/21/1

f 190/22/1 159/30/1 164/21/1

f 189/23/1 159/30/1 190/22/1

f 159/30/1 189/23/1 158/29/1

f 158/29/1 189/23/1 156/28/1

f 188/24/1 156/28/1 189/23/1

f 187/25/1 156/28/1 188/24/1

v 5700 2900 1320
f 156/28/1 187/25/1 191/55/1

v 5800 3000 1320
f 191/55/1 187/25/1 192/56/1

f 186/26/1 192/56/1 187/25/1

f 185/27/1 192/56/1 186/26/1

v 5600 3000 1320
f 192/56/1 193/57/1 191/55/1

f 191/55/1 193/57/1 156/28/1

f 157/36/1 156/28/1 193/57/1

v 5400 3000 1320
f 193/57/1 194/37/1 157/36/1

f 157/36/1 194/37/1 155/35/1

v 5300 2900 1320
f 195/38/1 155/35/1 194/37/1

v 5200 2800 1320
f 196/39/1 155/35/1 195/38/1

f 155/35/1 196/39/1 160/34/1

f 160/34/1 196/39/1 161/33/1

f 162/31/1 164/21/1 159/30/1

v 6200 2600 1320
f 182/4/1 197/46/1 183/2/1

f 179/5/1 197/46/1 182/4/1

v 6100 2500 1320
f 197/46/1 179/5/1 198/45/1

v 6000 2400 1320
f 198/45/1 179/5/1 199/44/1

f 178/8/1 199/44/1 179/5/1

f 175/9/1 199/44/1 178/8/1

v 5900 2300 1320
f 199/44/1 175/9/1 200/43/1

v 5800 2200 1320
f 200/43/1 175/9/1 201/42/1

f 174/12/1 201/42/1 175/9/1

f 171/13/1 201/42/1 174/12/1

v 5700 2100 1320
f 201/42/1 171/13/1 202/41/1

v 5600 2000 1320
f 202/41/1 171/13/1 203/40/1

f 170/16/1 203/40/1 171/13/1

f 169/17/1 203/40/1 170/16/1

v 5800 2000 1320
f 203/40/1 204/51/1 202/41/1

f 202/41/1 204/51/1 201/42/1

v 5900 2100 1320
f 205/50/1 201/42/1 204/51/1

v 6000 2200 1320
f 206/49/1 201/42/1 205/50/1

f 201/42/1 206/49/1 200/43/1

f 200/43/1 206/49/1 199/44/1

v 6100 2300 1320
f 207/48/1 199/44/1 206/49/1

v 6200 2400 1320
f 208/47/1 199/44/1 207/48/1

f 199/44/1 208/47/1 198/45/1

f 198/45/1 208/47/1 197/46/1

v 6200 2200 1320
f 207/48/1 209/54/1 208/47/1

f 206/49/1 209/54/1 207/48/1

v 6100 2100 1320
f 209/54/1 206/49/1 210/53/1

v 6000 2000 1320
f 210/53/1 206/49/1 211/52/1

f 205/50/1 211/52/1 206/49/1

f 204/51/1 211/52/1 205/50/1

